<svg xmlns="http://www.w3.org/2000/svg" version="1.1" xmlns:xlink="http://www.w3.org/1999/xlink" xmlns:svgjs="http://svgjs.dev/svgjs" width="2000" height="681" viewBox="0 0 2000 681"><g transform="matrix(1,0,0,1,-1.2121212121212466,-1.023845462713382)"><svg viewBox="0 0 396 135" data-background-color="#000000" preserveAspectRatio="xMidYMid meet" height="681" width="2000" xmlns="http://www.w3.org/2000/svg" xmlns:xlink="http://www.w3.org/1999/xlink"><g id="tight-bounds" transform="matrix(1,0,0,1,0.2400000000000091,0.20296495956873173)"><svg viewBox="0 0 395.52 134.59407008086254" height="134.59407008086254" width="395.52"><g><svg viewBox="0 0 395.52 134.59407008086254" height="134.59407008086254" width="395.52"><g><svg viewBox="0 0 395.52 134.59407008086254" height="134.59407008086254" width="395.52"><g id="textblocktransform"><svg viewBox="0 0 395.52 134.59407008086254" height="134.59407008086254" width="395.52" id="textblock"><g><svg viewBox="0 0 395.52 134.59407008086254" height="134.59407008086254" width="395.52"><g transform="matrix(1,0,0,1,0,0)"><svg width="395.52" viewBox="0.4 -39.65 148.39 50.5" height="134.59407008086254" data-palette-color="url(#f2ba510c-9d1c-4556-b2d8-066bffbf5e97)"></svg></g></svg></g></svg></g></svg></g><g></g></svg></g><defs></defs><mask id="742c2eed-3b64-4f9a-81f8-f12f35088805"><g id="SvgjsG1061"><svg viewBox="0 0 395.52 134.59407008086254" height="134.59407008086254" width="395.52"><g><svg viewBox="0 0 395.52 134.59407008086254" height="134.59407008086254" width="395.52"><g><svg viewBox="0 0 395.52 134.59407008086254" height="134.59407008086254" width="395.52"><g id="SvgjsG1060"><svg viewBox="0 0 395.52 134.59407008086254" height="134.59407008086254" width="395.52" id="SvgjsSvg1059"><g><svg viewBox="0 0 395.52 134.59407008086254" height="134.59407008086254" width="395.52"><g transform="matrix(1,0,0,1,0,0)"><svg width="395.52" viewBox="0.4 -39.65 148.39 50.5" height="134.59407008086254" data-palette-color="url(#f2ba510c-9d1c-4556-b2d8-066bffbf5e97)"><path d="M0.4-34.55L21.95-34.55 21.25-29.55 14.15-29.55 14.15 0 7.8 0 7.8-29.55 0.4-29.55 0.4-34.55ZM24.85-26.45L31-26.45 31 0 24.85 0 24.85-26.45ZM27.9-39.65Q29.55-39.65 30.57-38.6 31.6-37.55 31.6-35.9L31.6-35.9Q31.6-34.3 30.57-33.25 29.55-32.2 27.9-32.2L27.9-32.2Q26.25-32.2 25.22-33.25 24.2-34.3 24.2-35.9L24.2-35.9Q24.2-37.55 25.22-38.6 26.25-39.65 27.9-39.65L27.9-39.65ZM60.34-27.15Q63-27.15 64.59-25.1 66.19-23.05 66.19-19.6L66.19-19.6 66.19 0 60.14 0 60.14-18.95Q60.14-20.85 59.64-21.68 59.14-22.5 58.2-22.5L58.2-22.5Q56.25-22.5 54.45-18.8L54.45-18.8 54.45 0 48.45 0 48.45-18.95Q48.45-22.5 46.55-22.5L46.55-22.5Q44.49-22.5 42.74-18.8L42.74-18.8 42.74 0 36.7 0 36.7-26.45 42.05-26.45 42.45-23.05Q45.05-27.15 48.7-27.15L48.7-27.15Q50.55-27.15 51.89-26 53.25-24.85 53.95-22.75L53.95-22.75Q56.59-27.15 60.34-27.15L60.34-27.15ZM90.54-13.85Q90.54-13.4 90.39-11.3L90.39-11.3 76.74-11.3Q76.94-7.2 78.17-5.58 79.39-3.95 81.64-3.95L81.64-3.95Q83.19-3.95 84.44-4.48 85.69-5 87.14-6.15L87.14-6.15 89.69-2.65Q86.19 0.75 81.29 0.75L81.29 0.75Q76.09 0.75 73.32-2.85 70.54-6.45 70.54-13L70.54-13Q70.54-19.55 73.19-23.35 75.84-27.15 80.69-27.15L80.69-27.15Q85.34-27.15 87.94-23.78 90.54-20.4 90.54-13.85L90.54-13.85ZM84.54-15.3L84.54-15.65Q84.54-19.4 83.64-21.13 82.74-22.85 80.74-22.85L80.74-22.85Q78.89-22.85 77.92-21.18 76.94-19.5 76.74-15.3L76.74-15.3 84.54-15.3ZM100.44 0.75Q97.74 0.75 96.17-0.93 94.59-2.6 94.59-5.4L94.59-5.4 94.59-37.05 100.74-37.7 100.74-5.65Q100.74-5 101.04-4.6 101.34-4.2 101.94-4.2L101.94-4.2Q102.29-4.2 102.62-4.3 102.94-4.4 103.04-4.4L103.04-4.4 104.24-0.2Q102.54 0.75 100.44 0.75L100.44 0.75ZM125.94-26.45L118.94 0.1Q117.64 4.9 114.74 7.65 111.84 10.4 106.99 10.85L106.99 10.85 106.29 6.5Q109.44 5.85 111.01 4.42 112.59 3 113.49 0L113.49 0 111.19 0 104.49-26.45 110.74-26.45 115.14-4.1 119.84-26.45 125.94-26.45ZM138.24-27.15Q143.24-27.15 146.01-23.65 148.79-20.15 148.79-13.25L148.79-13.25Q148.79-6.65 145.99-2.95 143.19 0.75 138.24 0.75L138.24 0.75Q133.29 0.75 130.49-2.88 127.69-6.5 127.69-13.25L127.69-13.25Q127.69-19.95 130.49-23.55 133.29-27.15 138.24-27.15L138.24-27.15ZM138.24-22.5Q136.09-22.5 135.09-20.38 134.09-18.25 134.09-13.25L134.09-13.25Q134.09-8.2 135.09-6.08 136.09-3.95 138.24-3.95L138.24-3.95Q140.39-3.95 141.39-6.08 142.39-8.2 142.39-13.25L142.39-13.25Q142.39-18.3 141.39-20.4 140.39-22.5 138.24-22.5L138.24-22.5Z" opacity="1" transform="matrix(1,0,0,1,0,0)" fill="white" class="wordmark-text-0" id="SvgjsPath1058"></path></svg></g></svg></g></svg></g></svg></g><g></g></svg></g><defs><mask></mask></defs></svg><rect width="395.52" height="134.59407008086254" fill="black" stroke="none" visibility="hidden"></rect></g></mask><linearGradient x1="0" x2="1" y1="0.578" y2="0.595" id="f2ba510c-9d1c-4556-b2d8-066bffbf5e97"><stop stop-color="#6ee2f5" offset="0"></stop><stop stop-color="#6454f0" offset="1"></stop></linearGradient><rect width="395.52" height="134.59407008086254" fill="url(#f2ba510c-9d1c-4556-b2d8-066bffbf5e97)" mask="url(#742c2eed-3b64-4f9a-81f8-f12f35088805)" data-fill-palette-color="primary"></rect></svg><rect width="395.52" height="134.59407008086254" fill="none" stroke="none" visibility="hidden"></rect></g></svg></g></svg>